<?xml version="1.0" encoding="UTF-8"?>
<svg xmlns="http://www.w3.org/2000/svg" viewBox="0 0 735 678" width="735" height="678">
<path d="M0.25 0.25C245.08 0.25 489.92 0.25 734.75 0.25C734.75 226.08 734.75 451.92 734.75 677.75C489.92 677.75 245.08 677.75 0.25 677.75C0.25 451.92 0.25 226.08 0.25 0.25ZM201.57 136.96C199.37 137.28 197.18 137.61 194.98 137.94C191.15 138.5 187.34 138.58 183.51 139.13C166.46 141.56 150.35 148.51 135.88 157.35C133.04 159.08 130.2 159.74 127.5 161.9C126.47 160.88 125.68 159.54 124.51 158.61C118.24 153.66 101.69 153.23 94.53 156.03C92.91 156.66 91.7 157.88 90.13 158.57C87.02 159.93 83.51 160.9 81.15 163.62C78.82 166.3 77.74 169.74 76.45 172.97C75.39 175.61 74.05 178.27 73.56 181.1C73.26 182.86 73.69 184.75 73.87 186.5C74.78 195.55 77.56 202.18 85.5 207.02C86.12 201.67 84.86 202.73 82 198.82C80.54 196.81 78.86 188.28 79.2 185.54C79.81 180.54 84.53 172.08 88.66 169C91.5 166.87 95.64 166.45 98.92 165.41C101.42 164.62 103.83 163.14 106.5 163.12C109.96 163.09 116.21 166.05 119.52 167.5C117.09 169.95 114.66 172.4 112.24 174.85C106.88 173.39 104.36 172.92 98.74 174.5C97.95 178.3 95.54 177.71 93.56 180.66C88.64 188.01 92.2 195.24 98.5 200.06C100.17 200.14 101.83 200.22 103.5 200.29C113.36 197 117.52 188.24 113.83 178.63C125.04 167 144.48 159.32 159.38 153.86C162.54 152.7 165.49 150.06 168.62 149.17C171.17 148.44 174.08 148.86 176.69 148.39C182.55 147.32 188.28 145.13 194.02 143.83C196.14 143.35 197.8 143.9 199.93 143C202.62 142.97 205.31 142.93 208 142.9C209 142.86 210 142.81 211 142.77C212.67 142.51 214.33 142.24 216 141.97C220.75 141.51 226.51 140.77 231.26 141.43C233.36 141.72 235.32 142.8 237.5 142.82C239.11 142.83 240.71 142.03 242.3 142.34C243.24 142.52 243.88 143.3 244.78 143.57C246.28 144.03 247.89 143.81 249.4 144.21C250.59 144.52 251.46 145.44 252.65 145.71C253.89 145.99 255.12 145.67 256.34 146.09C257.26 146.41 257.73 147.33 258.68 147.62C259.96 148 261.13 147.77 262.5 148.26C263.55 149.33 263.86 150.61 264.81 151.69C267.4 154.6 271.27 156.29 275 157.09C276.92 159.56 278.85 162.03 280.77 164.5C285.81 167.53 289.11 172.02 295.5 171.81C296.71 170.3 298.28 168.43 298.87 166.47C299.79 163.43 299.38 154.86 297.62 152.35C295.62 149.5 291.53 146.81 288.5 145.12C283.23 145.94 279.01 147.64 273.85 146.91C271.78 145.11 269.71 143.3 267.65 141.5C271.65 136.26 278.31 135.07 284.5 134.95C286.56 134.91 289.19 133.98 291.22 134.47C293.96 135.13 297.4 138.58 299.77 140.16C300.33 142.48 300.92 143.19 302.97 144.3C308.82 151.37 304.46 152.38 306.48 159.5C303.34 163.63 304.72 165.76 304.5 170.6C306.83 170.81 309.17 171.01 311.5 171.22C314.95 166.64 313.6 165.59 315.11 161.11C315.28 160.63 316.07 160.21 316.32 159.67C317.3 157.52 316.95 155.2 316.82 152.97C316.16 142.15 314.04 138.94 305.18 133C301.22 130.35 297.69 128.18 293 127.31C289.39 126.63 280.7 129.95 277.01 131.14C271.31 132.97 265.71 134.49 262 139.5C255.18 138.44 248.56 135.99 241.52 135.36C237.71 135.02 234.22 135.93 230.5 136.02C226.54 136.12 222.53 135.06 218.5 135.14C212.81 135.25 207.23 136.51 201.57 136.96ZM309.37 189.03C308.08 187.49 306.79 185.94 305.5 184.4C304.5 183.83 303.5 183.27 302.5 182.7C302.35 183.69 301.63 184.57 301.59 185.57C301.48 187.81 305.27 191.53 306.94 192.53C304.22 195.73 301.18 198.72 298.47 201.96C296.94 203.8 295.95 206.17 294.34 207.88C292.51 209.82 290.45 211.04 288.77 213.26C285.67 217.35 283.78 222.18 280.78 226.27C279.1 228.55 276.93 230.46 275.19 232.7C266.45 243.97 257.68 259.13 253.1 272.6C247.58 288.8 247.59 305.93 244.76 322.58C240.78 323.64 237.45 323.23 233.52 323.87C230.75 324.33 228.25 326.37 225.37 326.75C223.73 326.96 222.18 326.51 220.55 326.87C219.05 327.2 217.89 328.42 216.33 328.65C208.76 329.75 201.08 327.51 193.5 328.05C190.52 328.26 187.44 328.52 184.5 328.82C182.1 329.07 179.95 330.5 177.46 330.55C174.32 330.61 171.57 329.89 168.5 329.61C165.79 329.37 163.09 330.65 160.5 330.43C158.46 330.26 156.69 328.93 154.5 328.96C153.07 328.99 151.9 329.76 150.51 329.76C148.04 329.76 144.95 328.9 142.5 328.41C141.5 326.7 140.5 324.99 139.5 323.27C132.16 322.18 126.15 319.14 119.47 315.9C118.12 315.25 116.45 315.19 115.31 314.17C113.2 312.27 112.08 308.36 110.45 306.04C107.46 301.78 103.94 295.91 102.94 290.48C102.68 289.06 102.06 278.83 102.43 277.5C102.64 276.72 103.52 276.32 103.77 275.47C104.31 273.68 103.71 271.47 103.5 269.7C95.68 275.71 96.8 290.92 99.22 299.5C101.22 306.6 103.69 314.1 108.71 319.8C119.03 331.5 133.71 334.9 148.45 338.13C150.24 338.52 151.72 339.59 153.52 339.94C158.82 340.99 163.94 340.43 169.2 341.5C168.63 344.67 168.07 347.83 167.5 351C163.41 354.65 159.66 365.46 158.06 370.99C157.39 372.97 156.72 374.94 156.05 376.91C153.71 384.93 151.37 392.94 149.03 400.95C148.72 401.13 148.4 401.32 148.09 401.5C148.02 403.3 147.96 405.1 147.89 406.9C146.87 417.4 145.82 427.91 146.31 438.5C146.83 449.51 148.48 460.57 149.69 471.53C150.27 476.78 150.17 491.39 157.27 491.5C161.17 502.84 174.02 508.81 185.5 507.8C189.79 507.42 193.5 505.11 197.57 504.15C200.24 503.51 210.73 501.55 212.34 498.95C212.66 498.42 212.49 496.66 212.5 496C213.53 496.45 212.48 496.67 213.56 496.84C214.6 497.02 222.32 489.84 223.17 488.7C224.99 486.27 225.66 483.03 227.43 480.5C229.95 479.83 232.48 479.17 235 478.5C236.5 479.5 238 480.51 239.5 481.51C245.04 481.01 250.58 480.5 256.13 480C255.4 485.1 253.01 489.93 251.42 494.84C249.16 501.82 247.33 508.87 245.48 515.97C244.2 520.92 241.84 529.33 244.5 533.88C250.85 536.29 263.76 529.18 269.91 526.42C282.16 520.93 294.57 516.44 307.43 512.79C314.28 510.85 320.1 507.96 327.5 508.93C331.68 509.47 334.68 512.28 338.25 514.27C342.85 516.83 347.85 518.75 352.72 520.74C372.86 528.97 406.16 542.4 427.5 542.69C436.04 542.8 444.96 541.77 453.5 541.08C459.84 540.57 466.58 540.7 472.82 539.43C482.36 537.49 491.51 533.27 500.79 530.38C507.28 528.36 514.58 527.09 520.77 524.31C525.56 522.16 529.93 518.6 534.5 515.98C543.13 511.06 552.17 506.42 560.47 500.97C566.99 496.69 571.98 489.55 577.94 484.47C585.48 478.03 592.63 471.16 599.78 464.29C603.5 460.72 607.62 457.33 610.87 453.31C615.8 447.2 619.89 440.01 623.52 433.08C628.28 423.98 630.06 413.26 632.89 403.46C635.28 395.2 639.15 386.59 640.52 378.13C643.19 361.56 643.32 344.71 643.76 328C643.84 326.5 643.93 325 644.02 323.5C643.78 323.33 643.54 323.17 643.3 323C643.56 308.38 639.25 293.85 634.29 280.3C632.87 276.42 631.84 272.24 630.01 268.53C628.17 264.8 625.56 261.47 623.75 257.72C620.82 251.69 618.96 244.71 615.47 239C611.81 233 606.27 228.02 602.15 222.31C583.05 195.79 564.93 175.22 534.93 160.58C522.14 154.34 502.32 150.89 488.26 147.37C481.04 145.56 472.52 141.14 465.49 140.19C456.05 138.92 446.02 140.28 436.55 140.63C419.63 141.25 403.23 142.81 386.87 147.45C381.49 148.98 376.45 151.67 371.29 153.77C366.52 155.71 361.46 157.2 356.78 159.33C350.18 162.32 344.05 166.67 337.76 170.27C334.51 172.12 330.93 173.34 327.72 175.2C321.05 179.07 315.7 184.79 309.37 189.03ZM259.06 394.05C260.74 387.36 278.45 378.65 285 378.56C287.76 390.78 292.26 402.5 297.81 413.71C299.86 417.86 306.96 427.38 306.77 431.46C306.57 435.82 303.88 440.88 302.54 445.01C300.01 452.81 297.85 460.76 295.2 468.54C293.59 473.28 290.02 479.76 292.15 484.5C296.78 486.1 301.09 483.67 305.57 482.18C314.57 479.18 323.53 476.13 332.52 473.1C335.85 471.98 340.93 469.31 344.44 470.08C348.26 470.92 352.46 475.62 355.74 477.76C361.7 481.64 368.27 484.69 374.58 487.91C394.24 497.94 420.51 503.08 442.5 503.02C515.31 502.83 580.24 452.56 599.25 382.61C603.61 366.56 605.93 350.24 605.21 333.5C604.91 326.53 604.77 318.23 601.5 311.98C599.99 311.57 598.48 311.17 596.97 310.76C596.62 310.34 596.26 309.92 595.9 309.5C595.42 308.17 594.94 306.83 594.45 305.5C592.43 303.01 593.03 300.9 590 299.5C589.67 298.5 589.33 297.5 589 296.5C589.4 296 589.8 295.51 590.2 295.01C593.63 295.82 595.33 294.4 597.07 291.5C595.42 283.34 591.02 275.65 587.37 268.19C585.6 264.56 584.18 260.35 579.5 260.6C578.59 262.06 577.68 263.53 576.77 265C576.18 264.5 575.59 264 575 263.5C574.17 262 573.33 260.5 572.5 259C572.23 255.91 571.55 252.93 569.22 250.59C569.62 250.12 570.01 249.65 570.4 249.18C571.19 247.95 571.99 246.73 572.78 245.5C569.18 240.77 565.57 236.04 561.97 231.3C562.19 231.04 562.41 230.77 562.63 230.5C560.33 228.47 558.03 226.45 555.73 224.42C547.33 217.82 539.74 210.61 530.77 204.69C504.86 187.58 473.49 178.65 442.5 178.73C375.54 178.92 316.77 219.56 291.74 281.28C284.64 298.79 278.38 322.01 280.74 341C278.63 341.3 275.77 340.13 273.56 339.72C266.69 338.43 257.71 336.9 251.93 332.89C251.24 310.5 258.51 286.02 267.16 265.58C295.83 197.84 362.42 153.34 435.51 150.43C450.27 149.84 466.09 150.4 480.52 153.8C502.86 159.06 524.7 167.05 544.14 179.43C564.98 192.7 582.93 210.16 597.27 230.24C609.22 246.96 619.11 265.76 624.79 285.62C630.75 306.53 634.46 329.7 633 351.5C629.08 410.07 598.87 464.69 550.17 497.65C536.49 506.9 521.9 515.28 506.17 520.6C485.72 527.51 464.1 531.02 442.5 531.31C417.75 531.64 392.88 526.96 370.01 517.48C361.47 513.95 352.74 509.43 344.85 504.61C340.42 501.91 335.69 496.97 330.31 496.56C325.17 496.16 319.39 499.68 314.55 501.18C300.77 505.47 287.14 510.29 273.41 514.79C268.11 516.52 261.65 520.06 256.18 519.5C256.85 512.5 260.23 505.59 262.45 498.94C266.57 486.6 270.59 474.22 274.38 461.8C276.12 456.08 280.04 449.53 280.19 443.5C280.32 438.04 275.04 432.43 272.69 427.76C267.16 416.79 263.12 405.62 259.06 394.05ZM405 192.04C405.33 192.16 405.67 192.27 406 192.39C405.17 192.92 404.33 193.46 403.5 194C402.5 194 401.5 194 400.5 194C400.33 193.77 400.17 193.53 400 193.3C401.67 192.88 403.33 192.46 405 192.04ZM94.5 218.82C93.67 219.46 92.85 219.72 92.21 220.58C91.79 221.15 89.41 230.93 89.49 231.54C89.7 233.32 90.44 233.13 91.5 234C91.02 234.63 89.84 235.66 89.67 236.4C89.32 237.9 90.04 238.63 90.25 240.03C90.51 241.81 89.99 243.58 90.26 245.35C90.67 248.04 92.4 250.83 93.2 253.45C93.92 255.83 94.95 259.88 97.09 261.43C99.19 262.94 100.88 262 103.08 261.5C104.78 257.8 104.61 252.88 101.95 249.58C101.05 248.45 99.67 247.74 99.09 246.36C98.55 245.07 98.82 243.61 98.26 242.35C97.88 241.48 96.83 240.89 96.59 239.99C96.22 238.62 96.9 236.93 96.82 235.5C96.54 229.79 95.37 224.03 94.5 218.82ZM239.7 230.85C236.57 233.34 235.55 235.96 235 239.87C234.79 240.08 234.58 240.29 234.37 240.5C234.63 242.17 234.9 243.83 235.17 245.5C235.48 245.67 235.79 245.85 236.1 246.02C236.35 246.64 236.6 247.25 236.85 247.86C237.77 250.06 238.65 251.14 240.84 252.09C242.78 254.04 244.66 254.06 247.5 254.1C247.67 253.81 247.83 253.51 248 253.21C258.32 250.54 257.55 240.23 252.24 232.9C251.4 230.93 251.06 230.61 249.05 229.98C248.87 229.68 248.68 229.39 248.5 229.09C244.98 228.5 242.22 228.33 239.7 230.85ZM166.87 238.95C161.61 241.97 160.72 246.58 160.85 252.26C160.83 255.55 161.47 258.18 164.12 260.14C165.07 260.74 166.02 261.33 166.97 261.93C170.15 264 174.53 263.82 177.08 260.84C178.09 259.63 179.1 258.42 180.11 257.22C182.47 254.59 182.61 250.6 181.17 247.59C179.79 243.73 177.7 240.97 174.11 238.97C171.62 237.41 169.37 237.35 166.87 238.95ZM385.5 246.31C389.31 251.51 391.53 258.42 394.21 264.29C398.04 272.67 402.9 281.54 405.04 290.5C400.87 298.95 386.79 306.31 386.61 315.66C386.45 323.38 396.58 335.23 401.56 340.93C415.25 356.6 431.25 369.24 449.81 378.66C458.13 382.88 467.89 388.29 477.5 387.01C490.14 385.33 495.02 369.48 504 362.5C519.26 369.17 534.51 375.83 549.77 382.5C552.08 400.42 543.26 411.43 527.59 418.22C523.15 420.15 518.33 422.14 513.46 422.66C503.08 423.77 492.65 421.49 482.72 418.7C435.66 405.49 402.22 382.73 372.37 344.12C365.45 335.16 358.08 326.76 353.11 316.42C348.49 306.78 344.37 295.38 345.29 284.47C346.31 272.47 352.8 255.79 363.87 249.38C368.15 246.91 372.68 246.47 377.5 246.16C380.48 245.97 382.64 245.64 385.5 246.31ZM207.93 250.87C205.5 251.33 204.88 251.71 203.99 254C203.7 254.16 203.41 254.33 203.11 254.5C203.4 256.03 203.68 257.55 203.96 259.08C204.83 261.47 205.53 261.68 208.07 261.99C213.52 262.83 218.49 261 220.25 255.5C218.32 248.16 213.77 250.32 207.93 250.87ZM161.57 267.5C149.06 257.97 123.67 263.87 131.9 282.6C134.64 288.83 142.64 289.62 148.4 289.47C150.41 289.42 152.43 289.91 154.2 288.66C162.94 282.43 164.8 277.57 161.57 267.5ZM278.85 349.92C278.98 350.45 279.12 350.97 279.25 351.5C279.86 351.83 280.47 352.17 281.08 352.5C281.35 353.06 281.62 353.61 281.89 354.17C282.73 358.47 284.37 358.61 283 363.5C278.87 363.22 278.11 368.66 275.17 370.55C274.27 371.14 273.12 371.09 272.2 371.74C269.56 373.61 268.39 377.32 265.45 379.03C263.63 380.09 261.53 379.33 259.7 380.19C258.81 380.61 258.54 381.69 257.72 382.21C256.49 383 254.76 382.68 253.51 383.42C252.46 384.05 251.48 385.18 250.5 385.92C248.58 385.9 246.37 385.25 244.5 385.44C241.93 385.72 240.74 387.73 238.9 389.03C236.35 390.82 232.21 390.57 229.41 391.5C228.96 395.24 229.3 397.97 232.24 400.5C233.25 400.56 243.07 399.75 244.08 399.5C245.64 399.13 246.72 397.79 248.45 397.97C249.45 398.08 249.42 398.56 250.13 399C250.73 401.68 250.79 404.48 251.48 407.11C254.28 417.79 262.51 433.51 269.5 441.85C270.92 452.29 261.81 455.63 264.17 465.9C258.24 467.55 250.17 467.17 245.5 472C245.09 471.4 244.98 470.59 244.28 470.22C242.44 469.23 239.49 469.97 237.5 469.9C233.38 469.75 229.99 469.08 226.5 466.96C223.64 468.82 221.1 471.91 218.13 473.56C216.4 474.53 214.78 474.3 213.31 475.77C211.2 477.89 211.16 480.6 209.5 482.84C207.5 482.76 205.5 482.69 203.5 482.61C202.94 483.57 202.29 485.25 201.28 485.82C200.5 486.26 199.53 486.03 198.71 486.29C196.77 486.92 195.63 488.7 193.76 489.36C190.26 490.61 188.59 489.69 187 493.5C185.7 493.15 184.7 492.23 183.46 491.93C180.77 491.28 178.03 492.66 175.5 492.46C173.97 492.33 171.76 490.98 170.26 490.5C169.64 488.86 168.36 487.6 167.82 486.02C167.21 484.21 167.97 482.51 166.77 480.74C165.06 478.22 161.73 475.86 160.51 473.09C159.88 471.64 156.87 460.01 156.87 458.5C156.86 456.09 158.09 453.86 158.1 451.5C158.11 448.2 157.11 445.89 157.93 442.5C156.95 441.17 155.97 439.83 155 438.5C155.86 432.17 156.72 425.83 157.59 419.5C157.18 418.09 156.23 416.89 155.94 415.47C155.21 411.81 158.57 408.59 157.52 402.5C160.71 399.76 158.71 397.27 159.35 393.59C159.53 392.55 160.39 392.18 160.74 391.25C161.78 388.44 160.42 386.52 159.5 384C163.81 381.39 162.86 378 164.37 373.78C164.69 372.88 165.57 372.43 165.89 371.44C167.16 367.45 166.98 363.07 168.63 359.09C170.26 355.17 173.47 352.62 175.68 349.2C177.26 346.75 178.49 343.04 180.51 341.04C181.73 339.84 183.18 339.92 184.49 339.02C185.86 338.08 186.53 336.21 187.5 334.91C189.5 336.09 191.5 337.27 193.5 338.45C195.84 337.68 204.29 335.93 206.33 336.24C207.16 336.37 207.7 337.18 208.54 337.35C211.35 337.89 215.56 338.2 218.5 338.3C219.59 339.37 220.68 340.43 221.77 341.5C224.49 342.01 225.89 341.03 228.5 340.97C230.99 340.91 233.93 342.19 236.36 341.79C237.56 341.59 238.23 340.44 239.52 340.37C240.63 340.31 241.45 341.04 242.52 341.08C243.58 341.11 244.46 340.49 245.48 340.49C248.65 340.49 252.11 341.93 255.24 342.45C257.23 342.79 259.39 342.19 261.43 342.41C262.83 342.57 264.09 343.17 265.5 343.29C266.5 343.38 267.42 342.87 268.43 343.12C269.82 343.46 270.41 345.11 271.75 345.72C276.5 347.86 274.82 345.78 278.85 349.92ZM304 405.27C303.68 405.18 303.35 405.09 303.03 405C302.66 403.98 302.28 402.96 301.91 401.94C302.11 401.29 302.3 400.65 302.5 400C303 400.83 303.5 401.67 304 402.5C304 403.42 304 404.34 304 405.27ZM580.07 410.97C579.49 411.97 578.91 412.98 578.33 413.98C578.2 411.95 578.24 411.62 579.5 410C579.69 410.32 579.88 410.64 580.07 410.97ZM548.52 413C549.01 412.97 549.51 412.93 550 412.9C550 413.43 550 413.97 550 414.5C549.17 415 548.33 415.5 547.5 416C546.98 415.89 546.47 415.78 545.95 415.68C546.8 414.88 547.65 414.08 548.5 413.28C548.51 413.19 548.51 413.09 548.52 413ZM461 418.51C460.9 418.51 460.8 418.5 460.7 418.5C462.22 419.17 463.74 419.84 465.26 420.51C462.77 420.93 462.02 421.07 460 419.5C460.33 419.17 460.67 418.84 461 418.51ZM542 458.88C541.1 459.58 540.19 460.28 539.29 460.97C539.19 460.48 539.1 459.99 539 459.5C539.83 459 540.67 458.5 541.5 458C541.67 458.29 541.83 458.59 542 458.88ZM305.27 466C305.52 466.17 305.76 466.33 306 466.5C305.67 468.17 305.33 469.83 305 471.5C305.74 471.83 306.49 472.16 307.23 472.5C305.99 472.76 304.74 473.01 303.5 473.27C303.83 471.51 304.17 469.76 304.5 468C304.76 467.33 305.02 466.67 305.27 466ZM266.6 475.02C266.97 475.52 267.35 476.01 267.72 476.5C265.25 478.56 262.15 478.23 259 478.23C259.17 477.82 259.33 477.41 259.5 477C261.17 477.09 262.83 477.17 264.5 477.26C265.2 476.51 265.9 475.77 266.6 475.02ZM408.9 491.2C406.93 490.71 404.97 490.23 403 489.75C403.17 489.5 403.33 489.25 403.5 489C404.5 489 405.5 489 406.5 489C407.67 489.5 408.83 490 410 490.5C409.63 490.73 409.27 490.96 408.9 491.2Z" fill="#fbebd2" fill-rule="evenodd" stroke="#fbebd2" stroke-width="0.25" stroke-linejoin="round"/>
<path d="M201.57 136.96C201.54 137.08 201.52 137.21 201.5 137.33C199.33 137.53 197.16 137.74 194.98 137.94C197.18 137.61 199.37 137.28 201.57 136.96ZM299.77 140.16C300.11 140.27 300.45 140.39 300.8 140.5C301.52 141.77 302.25 143.03 302.97 144.3C300.92 143.19 300.33 142.48 299.77 140.16ZM216 141.97C214.33 142.24 212.67 142.51 211 142.77C212.48 141.14 213.34 141.33 215.5 141.24C215.67 141.48 215.83 141.73 216 141.97ZM208 142.9C205.31 142.93 202.62 142.97 199.93 143C200.12 142.7 200.31 142.4 200.5 142.09C202.83 142.2 205.17 142.31 207.5 142.42C207.67 142.58 207.83 142.74 208 142.9ZM275 157.09C276.63 153.7 275.38 150.18 273.85 146.91C279.01 147.64 283.23 145.94 288.5 145.12C291.53 146.81 295.62 149.5 297.62 152.35C299.38 154.86 299.79 163.43 298.87 166.47C298.28 168.43 296.71 170.3 295.5 171.81C289.11 172.02 285.81 167.53 280.77 164.5C278.85 162.03 276.92 159.56 275 157.09ZM112.24 174.85C111.66 175.9 111.08 176.95 110.5 178C110.5 178.67 110.5 179.33 110.5 180C111.61 179.54 112.72 179.08 113.83 178.63C117.52 188.24 113.36 197 103.5 200.29C101.83 200.22 100.17 200.14 98.5 200.06C92.2 195.24 88.64 188.01 93.56 180.66C95.54 177.71 97.95 178.3 98.74 174.5C104.36 172.92 106.88 173.39 112.24 174.85ZM443.83 186.96C445.64 188.76 447.92 188.07 450.5 188.25C455.29 188.6 467.41 190.92 471 189.77C471.55 189.83 472.1 189.9 472.64 189.97C475 191.64 477.15 191.91 480.23 191.78C482.05 193.48 485.32 194.64 487.6 193.88C496.14 195.99 505.34 199.19 512.84 203.84C512.73 204.23 512.61 204.61 512.5 205C513.79 205.3 515.07 205.6 516.36 205.9C522.86 210.22 529.36 214.53 535.87 218.85C538.58 221.73 541.29 224.62 544 227.5C544.73 227.39 545.47 227.28 546.2 227.17C546.78 227.7 547.36 228.24 547.95 228.77C548.8 230.51 549.65 232.26 550.5 234C552.88 234.79 552.81 234.7 553.5 237C554.68 237.45 555.86 237.89 557.04 238.34C559.34 241.11 561.64 243.87 563.93 246.64C564.97 249.36 566.16 250.06 569.22 250.59C571.55 252.93 572.23 255.91 572.5 259C573.33 260.5 574.17 262 575 263.5C575.59 264 576.18 264.5 576.77 265C577.57 266.94 578.37 268.89 579.17 270.83C578.95 271.22 578.72 271.61 578.5 272C581.03 276.79 583.55 281.58 586.08 286.36C586.09 286.38 586.1 286.39 586.11 286.4C585.91 287.27 585.7 288.13 585.5 289C586.65 290.46 587.8 291.93 588.95 293.39C589.36 293.93 589.78 294.47 590.2 295.01C589.8 295.51 589.4 296 589 296.5C589.33 297.5 589.67 298.5 590 299.5C593.03 300.9 592.43 303.01 594.45 305.5C594.94 306.83 595.42 308.17 595.9 309.5C596.26 309.92 596.62 310.34 596.97 310.76C596.68 311.11 596.38 311.45 596.09 311.8C595.72 311.7 595.36 311.6 595 311.5C592.86 314.47 593.48 318.83 595.23 322C595.32 326.33 595.41 330.67 595.5 335C595.98 334.33 596.47 333.67 596.95 333C596.97 334 596.99 335 597.01 336C596.04 347.67 595.07 359.33 594.1 371C594.05 371.33 594 371.67 593.95 372C593.47 372 592.98 372 592.5 372C592.46 372.83 592.41 373.67 592.37 374.5C592.63 374.72 592.88 374.94 593.14 375.17C593.15 375.44 593.16 375.72 593.17 376C592.61 376 592.06 376 591.5 376C590.5 379.67 589.5 383.33 588.5 387C588.41 388.8 588.32 390.6 588.23 392.4C587.93 393.19 587.63 393.97 587.33 394.75C587.13 394.67 586.93 394.58 586.73 394.5C585.99 396.38 585.24 398.26 584.5 400.14C584.68 400.15 584.86 400.16 585.04 400.17C583.39 403.77 581.73 407.37 580.07 410.97C579.88 410.64 579.69 410.32 579.5 410C578.24 411.62 578.2 411.95 578.33 413.98C577.66 415.47 576.98 416.95 576.31 418.44C575.04 420.01 573.77 421.58 572.5 423.15C572.71 423.26 572.91 423.38 573.12 423.49C572.86 423.83 572.6 424.16 572.34 424.5C572.07 424.5 571.79 424.5 571.52 424.5C569.51 427.35 567.51 430.21 565.5 433.06C565.7 433.21 565.89 433.37 566.09 433.52C562.47 440.45 548.69 454.79 542 458.88C541.83 458.59 541.67 458.29 541.5 458C540.67 458.5 539.83 459 539 459.5C539.1 459.99 539.19 460.48 539.29 460.97C537.64 462.38 536 463.79 534.36 465.2C530.15 466.27 527.7 470.25 523 470.5C522.14 471.76 521.28 473.01 520.42 474.27C518.78 474.92 517.14 475.57 515.5 476.22C515.45 476.6 515.4 476.98 515.36 477.36C512.77 478.61 510.19 479.86 507.6 481.11C507.5 480.91 507.4 480.7 507.3 480.5C503.53 481.83 499.77 483.17 496 484.5C495.19 485.29 494.38 486.08 493.57 486.87C493.48 486.91 493.39 486.95 493.31 486.99C493.04 486.84 492.77 486.68 492.5 486.52C491.67 486.51 490.83 486.51 490 486.5C489.44 487.12 488.87 487.74 488.31 488.36C487.72 488.59 487.14 488.83 486.56 489.06C483.54 489.62 480.52 490.17 477.5 490.72C477.47 490.93 477.44 491.14 477.41 491.34C475.61 491.87 473.8 492.39 472 492.91C462 493.73 452 494.54 442 495.36C439.33 495.22 436.67 495.09 434 494.96C431 494.14 428 493.32 425 492.5C421.04 493.44 415.98 490.8 413 492.28C411.63 491.92 410.27 491.56 408.9 491.2C409.27 490.96 409.63 490.73 410 490.5C408.83 490 407.67 489.5 406.5 489C405.5 489 404.5 489 403.5 489C403.33 489.25 403.17 489.5 403 489.75C397.67 488.14 392.33 486.53 387 484.92C385.92 483.06 385.7 483.38 383.57 483.2C381.52 482.15 379.47 481.1 377.43 480.05C376.2 479.2 374.98 478.35 373.75 477.5C373.64 477.7 373.54 477.89 373.43 478.09C373.37 478.08 373.31 478.06 373.25 478.05C371.3 475.8 368.4 475.32 366.11 473.43C362.99 470.87 357.88 467.08 353.84 465.9C345.33 461.21 347.45 460.32 337.6 463.1C337.36 462.9 337.13 462.7 336.89 462.5C333.69 463.5 330.25 465.19 327 464.5C325.23 466.11 324.43 466.34 322 466.5C321.86 467.11 321.71 467.72 321.57 468.33C316.79 469.72 312.01 471.11 307.23 472.5C306.49 472.16 305.74 471.83 305 471.5C305.33 469.83 305.67 468.17 306 466.5C305.76 466.33 305.52 466.17 305.27 466C305.46 465.1 305.65 464.21 305.84 463.31C306.39 463.21 306.95 463.1 307.5 463C307.58 460.47 307.86 458.98 309.5 457C309.83 456 310.17 455 310.5 454C310.51 453.17 310.51 452.33 310.52 451.5C310.28 451.33 310.04 451.17 309.8 451C311.49 445.79 313.19 440.57 314.88 435.36C315.42 435.24 315.96 435.12 316.5 435C316.82 430.85 318.23 426.49 313.8 424.16C311.17 419.62 308.55 415.08 305.92 410.54C306.12 410.38 306.31 410.21 306.5 410.05C306.17 408.7 305.83 407.35 305.5 406C305 405.76 304.5 405.51 304 405.27C304 404.34 304 403.42 304 402.5C303.5 401.67 303 400.83 302.5 400C302.3 400.65 302.11 401.29 301.91 401.94C300.87 399.62 299.82 397.31 298.78 395C299.01 394.83 299.25 394.67 299.48 394.5C298.66 392.86 297.84 391.21 297.01 389.57C296.93 389.38 296.84 389.19 296.75 389C296.99 388.83 297.23 388.67 297.46 388.5C296.66 385.79 296.38 382.72 294.03 381C293.44 378.67 292.84 376.33 292.25 374C292.67 373.67 293.08 373.33 293.5 373C291.49 367.13 294.67 361.65 293.69 355.57C293.21 352.56 290.27 350.73 289.11 347.98C289.09 340.65 289.06 333.33 289.04 326C290.6 324.03 292.7 311.06 291.75 309C292.54 305.67 293.34 302.33 294.14 299C295.74 297.81 296.45 296.67 295.85 294.83C296.2 293.63 296.55 292.44 296.91 291.24C298.54 287.66 300.18 284.08 301.82 280.5C301.6 280.3 301.38 280.1 301.16 279.91C302 278.14 302.85 276.37 303.69 274.61C303.97 274.57 304.25 274.54 304.53 274.5C306.27 270.82 308.01 267.15 309.75 263.47C313.26 260.56 317.49 253.97 318.7 249.57C318.78 249.46 318.86 249.35 318.94 249.24C320.27 248 321.61 246.75 322.95 245.5C322.66 245.33 322.37 245.17 322.08 245C324.94 241.85 327.8 238.7 330.66 235.55C330.94 235.53 331.21 235.52 331.49 235.5C332.34 234.3 333.2 233.1 334.05 231.9C335.01 231 335.96 230.1 336.92 229.19C338.76 228.44 338.91 228.49 339.7 226.67C343.62 225.35 348.05 221.4 350.3 218.03C353.75 215.66 357.2 213.29 360.65 210.92C361.43 211.12 362.22 211.31 363 211.5C364.45 210 365.9 208.49 367.35 206.99C368.9 206.22 370.45 205.45 372 204.67C373.67 204.28 375.33 203.89 377 203.5C379.13 200.75 383.01 200.48 385.41 198.09C389.27 196.89 393.14 195.7 397 194.5C398 194.1 399 193.7 400 193.3C400.17 193.53 400.33 193.77 400.5 194C401.5 194 402.5 194 403.5 194C404.33 193.46 405.17 192.92 406 192.39C409.39 191.58 416.83 190.91 418.78 188.71C421.18 188.44 423.59 188.17 426 187.9C426.17 188.19 426.33 188.48 426.5 188.77C429.33 188.68 432.17 188.59 435 188.5C435.06 187.98 435.11 187.46 435.17 186.94C438.06 186.94 440.94 186.95 443.83 186.96ZM555.73 224.42C558.03 226.45 560.33 228.47 562.63 230.5C562.41 230.77 562.19 231.04 561.97 231.3C559.89 229.01 557.81 226.71 555.73 224.42ZM381.9 237.02C380.6 237.08 379.3 237.13 378 237.19C372.85 235.28 365.33 237.38 360.5 239.95C360.72 240.15 360.94 240.36 361.16 240.57C360.88 240.74 360.61 240.9 360.34 241.07C359.56 240.88 358.78 240.69 358 240.5C356.77 242.14 355.53 243.77 354.3 245.41C353.23 246.5 352.16 247.59 351.09 248.68C345.99 251.77 337.47 266.92 338.82 272.85C338.53 274.57 338.23 276.28 337.93 278C337.46 278 336.98 278 336.5 278C336.43 279.17 336.37 280.33 336.3 281.5C336.64 281.67 336.99 281.83 337.33 282C337.3 284 337.28 286 337.25 288C336.94 288.17 336.62 288.33 336.31 288.5C336.58 291.22 336.32 293.58 338.01 295.39C338.74 298.45 339.46 301.52 340.19 304.59C340.13 306.56 340.06 308.53 340 310.5C340.95 310.81 341.9 311.12 342.84 311.43C343.94 313.76 345.04 316.08 346.13 318.4C345.97 318.77 345.82 319.13 345.66 319.5C346.84 320.96 348.03 322.42 349.21 323.89C349.49 324.45 349.76 325.01 350.04 325.57C349.97 325.88 349.89 326.19 349.82 326.5C350.38 327.67 350.94 328.83 351.5 330C352.05 330.07 352.59 330.14 353.14 330.21C354.68 332.45 356.23 334.69 357.78 336.93C358.56 339.76 360.31 341.29 362.36 343.5C362.7 343.52 363.05 343.53 363.39 343.55C364.67 345.22 365.95 346.89 367.24 348.57C367.66 350.04 368.08 351.52 368.5 353C371.38 355.37 374.25 357.74 377.13 360.11C378.16 361.29 379.19 362.47 380.22 363.65C380.98 365.43 381.74 367.22 382.5 369C383.48 369.01 384.47 369.01 385.45 369.02C385.47 368.97 385.48 368.93 385.5 368.88C387.34 370.85 389.17 372.81 391.01 374.78C392.06 377.08 392.92 377.98 395.41 378.59C396.12 379.27 396.82 379.96 397.52 380.64C397.35 381.59 397.17 382.55 397 383.5C398.99 383.71 399.83 383.78 401 385.5C401.4 385.37 401.8 385.24 402.2 385.11C404.77 386.95 407.35 388.79 409.93 390.63C409.73 390.92 409.53 391.21 409.34 391.5C411.22 393.13 414.23 396.25 416.59 395.93C419.08 397.54 421.57 399.14 424.06 400.75C426.04 403.4 429.11 405.03 432.43 405.71C433.73 406.38 435.03 407.05 436.34 407.72C438.43 410.87 444.32 413.06 448 413.66C449.89 414.44 451.78 415.22 453.66 416C453.78 416.5 453.89 417 454 417.5C455.39 417.62 456.78 417.73 458.17 417.85C459.11 418.07 460.06 418.29 461 418.51C460.67 418.84 460.33 419.17 460 419.5C462.02 421.07 462.77 420.93 465.26 420.51C468.08 421.31 470.9 422.12 473.72 422.93C473.81 423.45 473.91 423.98 474 424.5C479.33 425.6 484.67 426.69 490 427.79C492.17 428.39 494.33 428.98 496.5 429.58C496.67 429.33 496.83 429.08 497 428.84C503.94 428.87 510.89 428.91 517.83 428.95C518.06 429.1 518.28 429.25 518.5 429.4C519.83 429.03 521.17 428.66 522.5 428.3C522.61 428.09 522.73 427.89 522.84 427.69C523.69 427.43 524.55 427.18 525.4 426.92C528.23 427.61 531.23 425.51 533.23 423.81C536.06 422.15 538.89 420.5 541.72 418.84C543.13 417.78 544.54 416.73 545.95 415.68C546.47 415.78 546.98 415.89 547.5 416C548.33 415.5 549.17 415 550 414.5C550 413.97 550 413.43 550 412.9C555.96 405.37 560.57 391.29 559.69 381.5C559.21 376.23 554.17 370.23 548.65 371.14C547.9 370.76 547.14 370.37 546.39 369.98C546.43 369.66 546.46 369.33 546.5 369C543.67 367.5 540.83 366 538 364.5C537.23 364.69 536.47 364.87 535.7 365.06C532.26 363.49 528.82 361.91 525.38 360.34C525.42 360.13 525.46 359.92 525.5 359.71C521.86 358.24 518.21 356.78 514.57 355.31C512.49 354.58 510.41 353.85 508.32 353.12C501.53 345.86 488.46 362 486.34 368.03C485.94 368.19 485.53 368.34 485.13 368.5C484.03 370.39 482.93 372.28 481.83 374.16C479.58 376.13 477.99 376.96 475 377.34C473.7 376.66 465.42 375.09 464.88 373.32C464.8 373.06 465.16 372.72 465 372.5C458.58 373.76 448.16 364.73 441.97 362.75C439.1 360.82 436.22 358.9 433.35 356.98C432.29 355.15 431.85 354.77 429.77 354.13C427.88 352.49 425.99 350.84 424.1 349.2C422.9 347.13 421.7 345.07 420.5 343C418.95 342.38 417.4 341.77 415.85 341.15C413.95 339.04 412.05 336.92 410.16 334.81C409.43 332.39 408.17 330.93 405.95 329.7C405.39 329.09 404.83 328.49 404.28 327.89C404.35 327.59 404.43 327.3 404.5 327C402.67 324.9 400.84 322.8 399.01 320.7C396.14 316.84 395.08 314.24 397.5 309.84C397.51 309.93 397.52 310.01 397.54 310.1C398.19 310.4 398.85 310.7 399.5 311C400.08 309.83 400.65 308.67 401.23 307.5C401.12 307.15 401.01 306.79 400.91 306.44C400.93 306.41 400.95 306.38 400.98 306.36C402.02 305.08 403.07 303.8 404.12 302.52C404.05 302.51 403.98 302.51 403.91 302.5C406.19 299.72 408.47 296.93 410.74 294.15C411.33 294.43 411.91 294.72 412.5 295C413.43 288.58 415.5 284.7 409.94 279.3C405.69 269.83 401.43 260.36 397.18 250.89C397.29 249.93 397.39 248.96 397.5 248C396.91 247.76 396.32 247.51 395.73 247.27C394.66 241.07 388.68 231.73 381.9 237.02ZM161.57 267.5C164.8 277.57 162.94 282.43 154.2 288.66C152.43 289.91 150.41 289.42 148.4 289.47C142.64 289.62 134.64 288.83 131.9 282.6C123.67 263.87 149.06 257.97 161.57 267.5ZM278.85 349.92C281.05 350.95 281.91 351.32 282.83 353.5C282.52 353.72 282.2 353.94 281.89 354.17C281.62 353.61 281.35 353.06 281.08 352.5C280.47 352.17 279.86 351.83 279.25 351.5C279.12 350.97 278.98 350.45 278.85 349.92ZM158.06 370.99C157.39 372.97 156.72 374.94 156.05 376.91C156.72 374.94 157.39 372.97 158.06 370.99ZM149.03 400.95C148.91 402.8 148.79 404.65 148.67 406.5C148.41 406.63 148.15 406.76 147.89 406.9C147.96 405.1 148.02 403.3 148.09 401.5C148.4 401.32 148.72 401.13 149.03 400.95Z" fill="#e7caaf" fill-rule="evenodd" stroke="#e7caaf" stroke-width="0.25" stroke-linejoin="round"/>
<path d="M643.3 323C643.2 324.5 643.1 326 643 327.5C643.25 327.67 643.51 327.83 643.76 328C643.32 344.71 643.19 361.56 640.52 378.13C639.15 386.59 635.28 395.2 632.89 403.46C630.06 413.26 628.28 423.98 623.52 433.08C619.89 440.01 615.8 447.2 610.87 453.31C607.62 457.33 603.5 460.72 599.78 464.29C592.63 471.16 585.48 478.03 577.94 484.47C571.98 489.55 566.99 496.69 560.47 500.97C552.17 506.42 543.13 511.06 534.5 515.98C529.93 518.6 525.56 522.16 520.77 524.31C514.58 527.09 507.28 528.36 500.79 530.38C491.51 533.27 482.36 537.49 472.82 539.43C466.58 540.7 459.84 540.57 453.5 541.08C444.96 541.77 436.04 542.8 427.5 542.69C406.16 542.4 372.86 528.97 352.72 520.74C347.85 518.75 342.85 516.83 338.25 514.27C334.68 512.28 331.68 509.47 327.5 508.93C320.1 507.96 314.28 510.85 307.43 512.79C294.57 516.44 282.16 520.93 269.91 526.42C263.76 529.18 250.85 536.29 244.5 533.88C241.84 529.33 244.2 520.92 245.48 515.97C247.33 508.87 249.16 501.82 251.42 494.84C253.01 489.93 255.4 485.1 256.13 480C256.8 479.83 257.47 479.67 258.14 479.5C258.43 479.08 258.71 478.66 259 478.23C262.15 478.23 265.25 478.56 267.72 476.5C267.35 476.01 266.97 475.52 266.6 475.02C265.79 471.98 264.98 468.94 264.17 465.9C261.81 455.63 270.92 452.29 269.5 441.85C262.51 433.51 254.28 417.79 251.48 407.11C250.79 404.48 250.73 401.68 250.13 399C253.12 397.24 255.33 396.72 257.5 393.86C258.02 393.92 258.54 393.99 259.06 394.05C263.12 405.62 267.16 416.79 272.69 427.76C275.04 432.43 280.32 438.04 280.19 443.5C280.04 449.53 276.12 456.08 274.38 461.8C270.59 474.22 266.57 486.6 262.45 498.94C260.23 505.59 256.85 512.5 256.18 519.5C261.65 520.06 268.11 516.52 273.41 514.79C287.14 510.29 300.77 505.47 314.55 501.18C319.39 499.68 325.17 496.16 330.31 496.56C335.69 496.97 340.42 501.91 344.85 504.61C352.74 509.43 361.47 513.95 370.01 517.48C392.88 526.96 417.75 531.64 442.5 531.31C464.1 531.02 485.72 527.51 506.17 520.6C521.9 515.28 536.49 506.9 550.17 497.65C598.87 464.69 629.08 410.07 633 351.5C634.46 329.7 630.75 306.53 624.79 285.62C619.11 265.76 609.22 246.96 597.27 230.24C582.93 210.16 564.98 192.7 544.14 179.43C524.7 167.05 502.86 159.06 480.52 153.8C466.09 150.4 450.27 149.84 435.51 150.43C362.42 153.34 295.83 197.84 267.16 265.58C258.51 286.02 251.24 310.5 251.93 332.89C245.31 334.33 245.21 327.1 244.76 322.58C247.59 305.93 247.58 288.8 253.1 272.6C257.68 259.13 266.45 243.97 275.19 232.7C276.93 230.46 279.1 228.55 280.78 226.27C283.78 222.18 285.67 217.35 288.77 213.26C290.45 211.04 292.51 209.82 294.34 207.88C295.95 206.17 296.94 203.8 298.47 201.96C301.18 198.72 304.22 195.73 306.94 192.53C307.5 192.19 308.07 191.84 308.64 191.5C308.88 190.68 309.12 189.85 309.37 189.03C315.7 184.79 321.05 179.07 327.72 175.2C330.93 173.34 334.51 172.12 337.76 170.27C344.05 166.67 350.18 162.32 356.78 159.33C361.46 157.2 366.52 155.71 371.29 153.77C376.45 151.67 381.49 148.98 386.87 147.45C403.23 142.81 419.63 141.25 436.55 140.63C446.02 140.28 456.05 138.92 465.49 140.19C472.52 141.14 481.04 145.56 488.26 147.37C502.32 150.89 522.14 154.34 534.93 160.58C564.93 175.22 583.05 195.79 602.15 222.31C606.27 228.02 611.81 233 615.47 239C618.96 244.71 620.82 251.69 623.75 257.72C625.56 261.47 628.17 264.8 630.01 268.53C631.84 272.24 632.87 276.42 634.29 280.3C639.25 293.85 643.56 308.38 643.3 323ZM555.73 224.42C557.81 226.71 559.89 229.01 561.97 231.3C565.57 236.04 569.18 240.77 572.78 245.5C571.99 246.73 571.19 247.95 570.4 249.18C568.24 248.33 566.09 247.48 563.93 246.64C561.64 243.87 559.34 241.11 557.04 238.34C555.53 234.51 551.59 230.71 547.95 228.77C547.36 228.24 546.78 227.7 546.2 227.17C544.24 223.52 539.82 220.03 535.87 218.85C529.36 214.53 522.86 210.22 516.36 205.9C515.19 205.21 514.02 204.53 512.84 203.84C505.34 199.19 496.14 195.99 487.6 193.88C485.57 192.96 483.53 192.04 481.5 191.12C481.08 191.34 480.65 191.56 480.23 191.78C478.26 190.45 477.29 190.34 475 190.5C474.21 190.32 473.43 190.15 472.64 189.97C472.1 189.9 471.55 189.83 471 189.77C466.32 187.7 448.52 185.52 443.83 186.96C440.94 186.95 438.06 186.94 435.17 186.94C434.94 186.72 434.72 186.5 434.5 186.28C432.67 186.69 430.83 187.09 429 187.5C428 187.63 427 187.77 426 187.9C423.59 188.17 421.18 188.44 418.78 188.71C414.35 189.45 409.93 190.18 405.5 190.92C405.33 191.29 405.17 191.67 405 192.04C403.33 192.46 401.67 192.88 400 193.3C399 193.7 398 194.1 397 194.5C393.14 195.7 389.27 196.89 385.41 198.09C381.36 198.87 374.1 200.88 372 204.67C370.45 205.45 368.9 206.22 367.35 206.99C365.4 207.84 363.45 208.68 361.5 209.53C361.22 209.99 360.93 210.46 360.65 210.92C357.2 213.29 353.75 215.66 350.3 218.03C346.51 219.25 341.54 223.23 339.7 226.67C338.77 227.51 337.84 228.35 336.92 229.19C335.96 230.1 335.01 231 334.05 231.9C332.92 233.12 331.79 234.33 330.66 235.55C327.8 238.7 324.94 241.85 322.08 245C321.03 246.41 319.98 247.83 318.94 249.24C318.86 249.35 318.78 249.46 318.7 249.57C315.24 252.25 310.51 259.22 309.75 263.47C306.91 265.74 304.06 271.03 303.69 274.61C302.85 276.37 302 278.14 301.16 279.91C298.67 283.1 297.26 287.23 296.91 291.24C296.55 292.44 296.2 293.63 295.85 294.83C295.28 296.22 294.71 297.61 294.14 299C293.34 302.33 292.54 305.67 291.75 309C290.84 314.67 289.94 320.33 289.04 326C289.06 333.33 289.09 340.65 289.11 347.98C286.57 346.37 284.04 344.75 281.5 343.14C281.25 342.42 281 341.71 280.74 341C278.38 322.01 284.64 298.79 291.74 281.28C316.77 219.56 375.54 178.92 442.5 178.73C473.49 178.65 504.86 187.58 530.77 204.69C539.74 210.61 547.33 217.82 555.73 224.42ZM249.05 229.98C250.11 230.95 251.18 231.92 252.24 232.9C257.55 240.23 258.32 250.54 248 253.21C245.61 252.84 243.23 252.47 240.84 252.09C239.51 250.68 238.18 249.27 236.85 247.86C236.6 247.25 236.35 246.64 236.1 246.02C235.73 243.97 235.36 241.92 235 239.87C235.55 235.96 236.57 233.34 239.7 230.85C242.82 230.56 245.93 230.27 249.05 229.98ZM395.73 247.27C395.19 249.06 395.75 249.61 397.18 250.89C401.43 260.36 405.69 269.83 409.94 279.3C411.46 285.92 413.74 287.15 410.74 294.15C408.47 296.93 406.19 299.72 403.91 302.5C403.98 302.51 404.05 302.51 404.12 302.52C401.89 303.61 401.67 303.94 400.98 306.36C400.95 306.38 400.93 306.41 400.91 306.44C399.78 307.66 398.66 308.88 397.54 310.1C397.52 310.01 397.51 309.93 397.5 309.84C395.08 314.24 396.14 316.84 399.01 320.7C399.97 323.76 401.57 326.15 404.28 327.89C404.83 328.49 405.39 329.09 405.95 329.7C406.8 332.17 407.88 333.61 410.16 334.81C410.96 337.4 413.34 340.11 415.85 341.15C417.02 344.27 420.91 347.91 424.1 349.2C425.99 350.84 427.88 352.49 429.77 354.13C430.96 355.08 432.16 356.03 433.35 356.98C436.22 358.9 439.1 360.82 441.97 362.75C446.3 368.97 459.5 372.9 466.5 375.77C469.7 377.09 471.65 378.13 475 377.34C477.99 376.96 479.58 376.13 481.83 374.16C484.57 372.53 485.87 371.01 486.34 368.03C492.28 366.32 493.97 356.95 499.47 354.09C502.06 352.74 505.54 352.88 508.32 353.12C510.41 353.85 512.49 354.58 514.57 355.31C518.17 356.98 521.77 358.66 525.38 360.34C528.82 361.91 532.26 363.49 535.7 365.06C537.47 365.87 539.23 366.69 541 367.5C542.79 369.34 543.85 369.66 546.39 369.98C547.14 370.37 547.9 370.76 548.65 371.14C550.95 373.53 555.24 374.28 557.06 377.49C558.71 380.4 557.9 384.38 557.64 387.5C556.75 397.87 553.25 404.3 548.52 413C548.51 413.09 548.51 413.19 548.5 413.28C547.65 414.08 546.8 414.88 545.95 415.68C543.98 416.31 542.9 416.92 541.72 418.84C538.89 420.5 536.06 422.15 533.23 423.81C530.62 424.85 528.01 425.88 525.4 426.92C524.55 427.18 523.69 427.43 522.84 427.69C521.39 427.76 519.95 427.83 518.5 427.89C518.28 428.25 518.06 428.6 517.83 428.95C510.89 428.91 503.94 428.87 497 428.84C494.51 427.44 492.68 427.32 490 427.79C486.61 424.75 478.27 423.48 473.72 422.93C470.9 422.12 468.08 421.31 465.26 420.51C463.74 419.84 462.22 419.17 460.7 418.5C460.8 418.5 460.9 418.51 461 418.51C460.06 418.29 459.11 418.07 458.17 417.85C457.94 417.38 457.72 416.92 457.5 416.45C456.22 416.3 454.94 416.15 453.66 416C451.78 415.22 449.89 414.44 448 413.66C447.87 413.28 447.75 412.89 447.62 412.5C443.86 410.91 440.1 409.31 436.34 407.72C435.03 407.05 433.73 406.38 432.43 405.71C429.64 404.05 426.85 402.4 424.06 400.75C421.57 399.14 419.08 397.54 416.59 395.93C414.83 393.4 412.88 391.83 409.93 390.63C407.35 388.79 404.77 386.95 402.2 385.11C400.64 383.62 399.08 382.13 397.52 380.64C396.82 379.96 396.12 379.27 395.41 378.59C393.95 377.32 392.48 376.05 391.01 374.78C389.17 372.81 387.34 370.85 385.5 368.88C385.48 368.93 385.47 368.97 385.45 369.02C383.71 367.23 381.97 365.44 380.22 363.65C379.19 362.47 378.16 361.29 377.13 360.11C375.26 356.3 370.88 350.48 367.24 348.57C365.95 346.89 364.67 345.22 363.39 343.55C362.55 340.82 360.32 338.5 357.78 336.93C356.23 334.69 354.68 332.45 353.14 330.21C352.48 327.89 352.02 326.87 350.04 325.57C349.76 325.01 349.49 324.45 349.21 323.89C348.19 322.06 347.16 320.23 346.13 318.4C345.04 316.08 343.94 313.76 342.84 311.43C342.4 310.29 341.95 309.14 341.5 308C341.06 306.86 340.63 305.73 340.19 304.59C339.46 301.52 338.74 298.45 338.01 295.39C337.76 292.92 337.5 290.46 337.25 288C337.28 286 337.3 284 337.33 282C337.53 280.67 337.73 279.33 337.93 278C338.23 276.28 338.53 274.57 338.82 272.85C340.74 270.24 341.12 266.23 342.63 263.14C345.07 258.15 349.06 253.7 351.09 248.68C352.16 247.59 353.23 246.5 354.3 245.41C355.53 244.44 356.77 243.47 358 242.5C358.78 242.02 359.56 241.55 360.34 241.07C360.61 240.9 360.88 240.74 361.16 240.57C366.77 239.44 372.39 238.32 378 237.19C379.3 237.13 380.6 237.08 381.9 237.02C383.43 236.82 384.97 236.62 386.5 236.43C391.48 239.68 392.06 244.43 395.73 247.27ZM166.87 238.95C169.29 238.96 171.7 238.96 174.11 238.97C177.7 240.97 179.79 243.73 181.17 247.59C180.82 250.8 180.46 254.01 180.11 257.22C179.1 258.42 178.09 259.63 177.08 260.84C173.71 261.2 170.34 261.57 166.97 261.93C166.02 261.33 165.07 260.74 164.12 260.14C163.25 257.59 162.38 255.05 161.51 252.5C161.29 252.42 161.07 252.34 160.85 252.26C160.72 246.58 161.61 241.97 166.87 238.95ZM385.5 246.31C382.64 245.64 380.48 245.97 377.5 246.16C372.68 246.47 368.15 246.91 363.87 249.38C352.8 255.79 346.31 272.47 345.29 284.47C344.37 295.38 348.49 306.78 353.11 316.42C358.08 326.76 365.45 335.16 372.37 344.12C402.22 382.73 435.66 405.49 482.72 418.7C492.65 421.49 503.08 423.77 513.46 422.66C518.33 422.14 523.15 420.15 527.59 418.22C543.26 411.43 552.08 400.42 549.77 382.5C534.51 375.83 519.26 369.17 504 362.5C495.02 369.48 490.14 385.33 477.5 387.01C467.89 388.29 458.13 382.88 449.81 378.66C431.25 369.24 415.25 356.6 401.56 340.93C396.58 335.23 386.45 323.38 386.61 315.66C386.79 306.31 400.87 298.95 405.04 290.5C402.9 281.54 398.04 272.67 394.21 264.29C391.53 258.42 389.31 251.51 385.5 246.31ZM208.07 261.99C206.7 261.02 205.33 260.05 203.96 259.08C203.97 257.39 203.98 255.69 203.99 254C205.31 252.95 206.62 251.91 207.93 250.87C213.77 250.32 218.32 248.16 220.25 255.5C218.49 261 213.52 262.83 208.07 261.99ZM590.2 295.01C589.78 294.47 589.36 293.93 588.95 293.39C588.46 292.26 587.98 291.13 587.5 290C587.45 287.86 587.54 288.03 586.11 286.4C586.1 286.39 586.09 286.38 586.08 286.36C584.89 283.24 583.69 280.12 582.5 277C582.17 276.33 581.83 275.67 581.5 275C581.58 272.93 580.94 272.05 579.17 270.83C578.37 268.89 577.57 266.94 576.77 265C577.68 263.53 578.59 262.06 579.5 260.6C584.18 260.35 585.6 264.56 587.37 268.19C591.02 275.65 595.42 283.34 597.07 291.5C595.33 294.4 593.63 295.82 590.2 295.01ZM596.97 310.76C598.48 311.17 599.99 311.57 601.5 311.98C604.77 318.23 604.91 326.53 605.21 333.5C605.93 350.24 603.61 366.56 599.25 382.61C580.24 452.56 515.31 502.83 442.5 503.02C420.51 503.08 394.24 497.94 374.58 487.91C368.27 484.69 361.7 481.64 355.74 477.76C352.46 475.62 348.26 470.92 344.44 470.08C340.93 469.31 335.85 471.98 332.52 473.1C323.53 476.13 314.57 479.18 305.57 482.18C301.09 483.67 296.78 486.1 292.15 484.5C290.02 479.76 293.59 473.28 295.2 468.54C297.85 460.76 300.01 452.81 302.54 445.01C303.88 440.88 306.57 435.82 306.77 431.46C306.96 427.38 299.86 417.86 297.81 413.71C292.26 402.5 287.76 390.78 285 378.56C286.83 375.72 288.67 372.88 290.5 370.04C291.08 371.36 291.67 372.68 292.25 374C292.84 376.33 293.44 378.67 294.03 381C294.52 382.33 295.01 383.67 295.5 385C295.92 386.33 296.34 387.67 296.75 389C296.84 389.19 296.93 389.38 297.01 389.57C297.6 391.38 298.19 393.19 298.78 395C299.82 397.31 300.87 399.62 301.91 401.94C302.28 402.96 302.66 403.98 303.03 405C303.51 406.5 303.99 408 304.47 409.5C304.95 409.85 305.44 410.19 305.92 410.54C308.55 415.08 311.17 419.62 313.8 424.16C315.37 428.95 315.45 430.41 314.88 435.36C313.19 440.57 311.49 445.79 309.8 451C308.48 455.1 307.16 459.21 305.84 463.31C305.65 464.21 305.46 465.1 305.27 466C305.02 466.67 304.76 467.33 304.5 468C304.17 469.76 303.83 471.51 303.5 473.27C304.74 473.01 305.99 472.76 307.23 472.5C312.01 471.11 316.79 469.72 321.57 468.33C324.28 469.09 335.07 464.85 337.6 463.1C347.45 460.32 345.33 461.21 353.84 465.9C356.62 470.29 368.05 477.18 373.25 478.05C373.31 478.06 373.37 478.08 373.43 478.09C374.8 479.78 375.16 479.73 377.43 480.05C379.47 481.1 381.52 482.15 383.57 483.2C384.71 483.77 385.86 484.35 387 484.92C392.33 486.53 397.67 488.14 403 489.75C404.97 490.23 406.93 490.71 408.9 491.2C410.27 491.56 411.63 491.92 413 492.28C418.47 494.99 427.97 495.72 434 494.96C436.67 495.09 439.33 495.22 442 495.36C447.72 497.14 466.65 495.54 472 492.91C473.8 492.39 475.61 491.87 477.41 491.34C480.58 491.79 483.84 490.65 486.56 489.06C487.14 488.83 487.72 488.59 488.31 488.36C490.44 488.72 491.48 488.31 493.31 486.99C493.39 486.95 493.48 486.91 493.57 486.87C494.71 486.41 495.86 485.96 497 485.5C500.41 485.81 505.11 483.21 507.6 481.11C510.19 479.86 512.77 478.61 515.36 477.36C517.67 476.9 519.07 476.19 520.42 474.27C524.94 473.49 531.58 468.98 534.36 465.2C536 463.79 537.64 462.38 539.29 460.97C540.19 460.28 541.1 459.58 542 458.88C548.69 454.79 562.47 440.45 566.09 433.52C568.35 432.06 572.8 427.32 572.34 424.5C572.6 424.16 572.86 423.83 573.12 423.49C574.18 421.81 575.25 420.12 576.31 418.44C576.98 416.95 577.66 415.47 578.33 413.98C578.91 412.98 579.49 411.97 580.07 410.97C581.73 407.37 583.39 403.77 585.04 400.17C585.96 398.61 586.88 397.06 587.8 395.5C587.65 395.25 587.49 395 587.33 394.75C587.63 393.97 587.93 393.19 588.23 392.4C591.36 388.4 592.53 381.1 593.17 376C593.16 375.72 593.15 375.44 593.14 375.17C593.46 374.94 593.78 374.72 594.1 374.5C594.05 373.67 594 372.83 593.95 372C594 371.67 594.05 371.33 594.1 371C597.58 362.33 599.05 345.09 597.01 336C596.99 335 596.97 334 596.95 333C596.66 329.5 596.37 326 596.07 322.5C595.79 322.33 595.51 322.17 595.23 322C595.52 318.6 595.8 315.2 596.09 311.8C596.38 311.45 596.68 311.11 596.97 310.76Z" fill="#685d58" fill-rule="evenodd" stroke="#685d58" stroke-width="0.25" stroke-linejoin="round"/>
<path d="M302.97 144.3C302.25 143.03 301.52 141.77 300.8 140.5C300.45 140.39 300.11 140.27 299.77 140.16C297.4 138.58 293.96 135.13 291.22 134.47C289.19 133.98 286.56 134.91 284.5 134.95C278.31 135.07 271.65 136.26 267.65 141.5C269.71 143.3 271.78 145.11 273.85 146.91C275.38 150.18 276.63 153.7 275 157.09C271.27 156.29 267.4 154.6 264.81 151.69C263.86 150.61 263.55 149.33 262.5 148.26C261.13 147.77 259.96 148 258.68 147.62C257.73 147.33 257.26 146.41 256.34 146.09C255.12 145.67 253.89 145.99 252.65 145.71C251.46 145.44 250.59 144.52 249.4 144.21C247.89 143.81 246.28 144.03 244.78 143.57C243.88 143.3 243.24 142.52 242.3 142.34C240.71 142.03 239.11 142.83 237.5 142.82C235.32 142.8 233.36 141.72 231.26 141.43C226.51 140.77 220.75 141.51 216 141.97C215.83 141.73 215.67 141.48 215.5 141.24C213.34 141.33 212.48 141.14 211 142.77C210 142.81 209 142.86 208 142.9C207.83 142.74 207.67 142.58 207.5 142.42C205.17 142.31 202.83 142.2 200.5 142.09C200.31 142.4 200.12 142.7 199.93 143C197.8 143.9 196.14 143.35 194.02 143.83C188.28 145.13 182.55 147.32 176.69 148.39C174.08 148.86 171.17 148.44 168.62 149.17C165.49 150.06 162.54 152.7 159.38 153.86C144.48 159.32 125.04 167 113.83 178.63C112.72 179.08 111.61 179.54 110.5 180C110.5 179.33 110.5 178.67 110.5 178C111.08 176.95 111.66 175.9 112.24 174.85C114.66 172.4 117.09 169.95 119.52 167.5C116.21 166.05 109.96 163.09 106.5 163.12C103.83 163.14 101.42 164.62 98.92 165.41C95.64 166.45 91.5 166.87 88.66 169C84.53 172.08 79.81 180.54 79.2 185.54C78.86 188.28 80.54 196.81 82 198.82C84.86 202.73 86.12 201.67 85.5 207.02C77.56 202.18 74.78 195.55 73.87 186.5C73.69 184.75 73.26 182.86 73.56 181.1C74.05 178.27 75.39 175.61 76.45 172.97C77.74 169.74 78.82 166.3 81.15 163.62C83.51 160.9 87.02 159.93 90.13 158.57C91.7 157.88 92.91 156.66 94.53 156.03C101.69 153.23 118.24 153.66 124.51 158.61C125.68 159.54 126.47 160.88 127.5 161.9C130.2 159.74 133.04 159.08 135.88 157.35C150.35 148.51 166.46 141.56 183.51 139.13C187.34 138.58 191.15 138.5 194.98 137.94C197.16 137.74 199.33 137.53 201.5 137.33C201.52 137.21 201.54 137.08 201.57 136.96C207.23 136.51 212.81 135.25 218.5 135.14C222.53 135.06 226.54 136.12 230.5 136.02C234.22 135.93 237.71 135.02 241.52 135.36C248.56 135.99 255.18 138.44 262 139.5C265.71 134.49 271.31 132.97 277.01 131.14C280.7 129.95 289.39 126.63 293 127.31C297.69 128.18 301.22 130.35 305.18 133C314.04 138.94 316.16 142.15 316.82 152.97C316.95 155.2 317.3 157.52 316.32 159.67C316.07 160.21 315.28 160.63 315.11 161.11C313.6 165.59 314.95 166.64 311.5 171.22C309.17 171.01 306.83 170.81 304.5 170.6C304.72 165.76 303.34 163.63 306.48 159.5C304.46 152.38 308.82 151.37 302.97 144.3ZM309.37 189.03C309.12 189.85 308.88 190.68 308.64 191.5C308.07 191.84 307.5 192.19 306.94 192.53C305.27 191.53 301.48 187.81 301.59 185.57C301.63 184.57 302.35 183.69 302.5 182.7C303.5 183.27 304.5 183.83 305.5 184.4C306.79 185.94 308.08 187.49 309.37 189.03ZM435.17 186.94C435.11 187.46 435.06 187.98 435 188.5C432.17 188.59 429.33 188.68 426.5 188.77C426.33 188.48 426.17 188.19 426 187.9C427 187.77 428 187.63 429 187.5C430.83 187.09 432.67 186.69 434.5 186.28C434.72 186.5 434.94 186.72 435.17 186.94ZM471 189.77C467.41 190.92 455.29 188.6 450.5 188.25C447.92 188.07 445.64 188.76 443.83 186.96C448.52 185.52 466.32 187.7 471 189.77ZM418.78 188.71C416.83 190.91 409.39 191.58 406 192.39C405.67 192.27 405.33 192.16 405 192.04C405.17 191.67 405.33 191.29 405.5 190.92C409.93 190.18 414.35 189.45 418.78 188.71ZM472.64 189.97C473.43 190.15 474.21 190.32 475 190.5C477.29 190.34 478.26 190.45 480.23 191.78C477.15 191.91 475 191.64 472.64 189.97ZM487.6 193.88C485.32 194.64 482.05 193.48 480.23 191.78C480.65 191.56 481.08 191.34 481.5 191.12C483.53 192.04 485.57 192.96 487.6 193.88ZM385.41 198.09C383.01 200.48 379.13 200.75 377 203.5C375.33 203.89 373.67 204.28 372 204.67C374.1 200.88 381.36 198.87 385.41 198.09ZM512.84 203.84C514.02 204.53 515.19 205.21 516.36 205.9C515.07 205.6 513.79 205.3 512.5 205C512.61 204.61 512.73 204.23 512.84 203.84ZM367.35 206.99C365.9 208.49 364.45 210 363 211.5C362.22 211.31 361.43 211.12 360.65 210.92C360.93 210.46 361.22 209.99 361.5 209.53C363.45 208.68 365.4 207.84 367.35 206.99ZM350.3 218.03C348.05 221.4 343.62 225.35 339.7 226.67C341.54 223.23 346.51 219.25 350.3 218.03ZM535.87 218.85C539.82 220.03 544.24 223.52 546.2 227.17C545.47 227.28 544.73 227.39 544 227.5C541.29 224.62 538.58 221.73 535.87 218.85ZM94.5 218.82C95.37 224.03 96.54 229.79 96.82 235.5C96.9 236.93 96.22 238.62 96.59 239.99C96.83 240.89 97.88 241.48 98.26 242.35C98.82 243.61 98.55 245.07 99.09 246.36C99.67 247.74 101.05 248.45 101.95 249.58C104.61 252.88 104.78 257.8 103.08 261.5C100.88 262 99.19 262.94 97.09 261.43C94.95 259.88 93.92 255.83 93.2 253.45C92.4 250.83 90.67 248.04 90.26 245.35C89.99 243.58 90.51 241.81 90.25 240.03C90.04 238.63 89.32 237.9 89.67 236.4C89.84 235.66 91.02 234.63 91.5 234C90.44 233.13 89.7 233.32 89.49 231.54C89.41 230.93 91.79 221.15 92.21 220.58C92.85 219.72 93.67 219.46 94.5 218.82ZM339.7 226.67C338.91 228.49 338.76 228.44 336.92 229.19C337.84 228.35 338.77 227.51 339.7 226.67ZM249.05 229.98C245.93 230.27 242.82 230.56 239.7 230.85C242.22 228.33 244.98 228.5 248.5 229.09C248.68 229.39 248.87 229.68 249.05 229.98ZM547.95 228.77C551.59 230.71 555.53 234.51 557.04 238.34C555.86 237.89 554.68 237.45 553.5 237C552.81 234.7 552.88 234.79 550.5 234C549.65 232.26 548.8 230.51 547.95 228.77ZM249.05 229.98C251.06 230.61 251.4 230.93 252.24 232.9C251.18 231.92 250.11 230.95 249.05 229.98ZM334.05 231.9C333.2 233.1 332.34 234.3 331.49 235.5C331.21 235.52 330.94 235.53 330.66 235.55C331.79 234.33 332.92 233.12 334.05 231.9ZM395.73 247.27C392.06 244.43 391.48 239.68 386.5 236.43C384.97 236.62 383.43 236.82 381.9 237.02C388.68 231.73 394.66 241.07 395.73 247.27ZM378 237.19C372.39 238.32 366.77 239.44 361.16 240.57C360.94 240.36 360.72 240.15 360.5 239.95C365.33 237.38 372.85 235.28 378 237.19ZM174.11 238.97C171.7 238.96 169.29 238.96 166.87 238.95C169.37 237.35 171.62 237.41 174.11 238.97ZM235 239.87C235.36 241.92 235.73 243.97 236.1 246.02C235.79 245.85 235.48 245.67 235.17 245.5C234.9 243.83 234.63 242.17 234.37 240.5C234.58 240.29 234.79 240.08 235 239.87ZM360.34 241.07C359.56 241.55 358.78 242.02 358 242.5C356.77 243.47 355.53 244.44 354.3 245.41C355.53 243.77 356.77 242.14 358 240.5C358.78 240.69 359.56 240.88 360.34 241.07ZM322.08 245C322.37 245.17 322.66 245.33 322.95 245.5C321.61 246.75 320.27 248 318.94 249.24C319.98 247.83 321.03 246.41 322.08 245ZM395.73 247.27C396.32 247.51 396.91 247.76 397.5 248C397.39 248.96 397.29 249.93 397.18 250.89C395.75 249.61 395.19 249.06 395.73 247.27ZM563.93 246.64C566.09 247.48 568.24 248.33 570.4 249.18C570.01 249.65 569.62 250.12 569.22 250.59C566.16 250.06 564.97 249.36 563.93 246.64ZM181.17 247.59C182.61 250.6 182.47 254.59 180.11 257.22C180.46 254.01 180.82 250.8 181.17 247.59ZM236.85 247.86C238.18 249.27 239.51 250.68 240.84 252.09C238.65 251.14 237.77 250.06 236.85 247.86ZM351.09 248.68C349.06 253.7 345.07 258.15 342.63 263.14C341.12 266.23 340.74 270.24 338.82 272.85C337.47 266.92 345.99 251.77 351.09 248.68ZM318.7 249.57C317.49 253.97 313.26 260.56 309.75 263.47C310.51 259.22 315.24 252.25 318.7 249.57ZM207.93 250.87C206.62 251.91 205.31 252.95 203.99 254C204.88 251.71 205.5 251.33 207.93 250.87ZM160.85 252.26C161.07 252.34 161.29 252.42 161.51 252.5C162.38 255.05 163.25 257.59 164.12 260.14C161.47 258.18 160.83 255.55 160.85 252.26ZM240.84 252.09C243.23 252.47 245.61 252.84 248 253.21C247.83 253.51 247.67 253.81 247.5 254.1C244.66 254.06 242.78 254.04 240.84 252.09ZM203.99 254C203.98 255.69 203.97 257.39 203.96 259.08C203.68 257.55 203.4 256.03 203.11 254.5C203.41 254.33 203.7 254.16 203.99 254ZM203.96 259.08C205.33 260.05 206.7 261.02 208.07 261.99C205.53 261.68 204.83 261.47 203.96 259.08ZM177.08 260.84C174.53 263.82 170.15 264 166.97 261.93C170.34 261.57 173.71 261.2 177.08 260.84ZM309.75 263.47C308.01 267.15 306.27 270.82 304.53 274.5C304.25 274.54 303.97 274.57 303.69 274.61C304.06 271.03 306.91 265.74 309.75 263.47ZM244.76 322.58C245.21 327.1 245.31 334.33 251.93 332.89C257.71 336.9 266.69 338.43 273.56 339.72C275.77 340.13 278.63 341.3 280.74 341C281 341.71 281.25 342.42 281.5 343.14C284.04 344.75 286.57 346.37 289.11 347.98C290.27 350.73 293.21 352.56 293.69 355.57C294.67 361.65 291.49 367.13 293.5 373C293.08 373.33 292.67 373.67 292.25 374C291.67 372.68 291.08 371.36 290.5 370.04C288.67 372.88 286.83 375.72 285 378.56C278.45 378.65 260.74 387.36 259.06 394.05C258.54 393.99 258.02 393.92 257.5 393.86C255.33 396.72 253.12 397.24 250.13 399C249.42 398.56 249.45 398.08 248.45 397.97C246.72 397.79 245.64 399.13 244.08 399.5C243.07 399.75 233.25 400.56 232.24 400.5C229.3 397.97 228.96 395.24 229.41 391.5C232.21 390.57 236.35 390.82 238.9 389.03C240.74 387.73 241.93 385.72 244.5 385.44C246.37 385.25 248.58 385.9 250.5 385.92C251.48 385.18 252.46 384.05 253.51 383.42C254.76 382.68 256.49 383 257.72 382.21C258.54 381.69 258.81 380.61 259.7 380.19C261.53 379.33 263.63 380.09 265.45 379.03C268.39 377.32 269.56 373.61 272.2 371.74C273.12 371.09 274.27 371.14 275.17 370.55C278.11 368.66 278.87 363.22 283 363.5C284.37 358.61 282.73 358.47 281.89 354.17C282.2 353.94 282.52 353.72 282.83 353.5C281.91 351.32 281.05 350.95 278.85 349.92C274.82 345.78 276.5 347.86 271.75 345.72C270.41 345.11 269.82 343.46 268.43 343.12C267.42 342.87 266.5 343.38 265.5 343.29C264.09 343.17 262.83 342.57 261.43 342.41C259.39 342.19 257.23 342.79 255.24 342.45C252.11 341.93 248.65 340.49 245.48 340.49C244.46 340.49 243.58 341.11 242.52 341.08C241.45 341.04 240.63 340.31 239.52 340.37C238.23 340.44 237.56 341.59 236.36 341.79C233.93 342.19 230.99 340.91 228.5 340.97C225.89 341.03 224.49 342.01 221.77 341.5C220.68 340.43 219.59 339.37 218.5 338.3C215.56 338.2 211.35 337.89 208.54 337.35C207.7 337.18 207.16 336.37 206.33 336.24C204.29 335.93 195.84 337.68 193.5 338.45C191.5 337.27 189.5 336.09 187.5 334.91C186.53 336.21 185.86 338.08 184.49 339.02C183.18 339.92 181.73 339.84 180.51 341.04C178.49 343.04 177.26 346.75 175.68 349.2C173.47 352.62 170.26 355.17 168.63 359.09C166.98 363.07 167.16 367.45 165.89 371.44C165.57 372.43 164.69 372.88 164.37 373.78C162.86 378 163.81 381.39 159.5 384C160.42 386.52 161.78 388.44 160.74 391.25C160.39 392.18 159.53 392.55 159.35 393.59C158.71 397.27 160.71 399.76 157.52 402.5C158.57 408.59 155.21 411.81 155.94 415.47C156.23 416.89 157.18 418.09 157.59 419.5C156.72 425.83 155.86 432.17 155 438.5C155.97 439.83 156.95 441.17 157.93 442.5C157.11 445.89 158.11 448.2 158.1 451.5C158.09 453.86 156.86 456.09 156.87 458.5C156.87 460.01 159.88 471.64 160.51 473.09C161.73 475.86 165.06 478.22 166.77 480.74C167.97 482.51 167.21 484.21 167.82 486.02C168.36 487.6 169.64 488.86 170.26 490.5C171.76 490.98 173.97 492.33 175.5 492.46C178.03 492.66 180.77 491.28 183.46 491.93C184.7 492.23 185.7 493.15 187 493.5C188.59 489.69 190.26 490.61 193.76 489.36C195.63 488.7 196.77 486.92 198.71 486.29C199.53 486.03 200.5 486.26 201.28 485.82C202.29 485.25 202.94 483.57 203.5 482.61C205.5 482.69 207.5 482.76 209.5 482.84C211.16 480.6 211.2 477.89 213.31 475.77C214.78 474.3 216.4 474.53 218.13 473.56C221.1 471.91 223.64 468.82 226.5 466.96C229.99 469.08 233.38 469.75 237.5 469.9C239.49 469.97 242.44 469.23 244.28 470.22C244.98 470.59 245.09 471.4 245.5 472C250.17 467.17 258.24 467.55 264.17 465.9C264.98 468.94 265.79 471.98 266.6 475.02C265.9 475.77 265.2 476.51 264.5 477.26C262.83 477.17 261.17 477.09 259.5 477C259.33 477.41 259.17 477.82 259 478.23C258.71 478.66 258.43 479.08 258.14 479.5C257.47 479.67 256.8 479.83 256.13 480C250.58 480.5 245.04 481.01 239.5 481.51C238 480.51 236.5 479.5 235 478.5C232.48 479.17 229.95 479.83 227.43 480.5C225.66 483.03 224.99 486.27 223.17 488.7C222.32 489.84 214.6 497.02 213.56 496.84C212.48 496.67 213.53 496.45 212.5 496C212.49 496.66 212.66 498.42 212.34 498.95C210.73 501.55 200.24 503.51 197.57 504.15C193.5 505.11 189.79 507.42 185.5 507.8C174.02 508.81 161.17 502.84 157.27 491.5C150.17 491.39 150.27 476.78 149.69 471.53C148.48 460.57 146.83 449.51 146.31 438.5C145.82 427.91 146.87 417.4 147.89 406.9C148.15 406.76 148.41 406.63 148.67 406.5C148.79 404.65 148.91 402.8 149.03 400.95C151.37 392.94 153.71 384.93 156.05 376.91C156.72 374.94 157.39 372.97 158.06 370.99C159.66 365.46 163.41 354.65 167.5 351C168.07 347.83 168.63 344.67 169.2 341.5C163.94 340.43 158.82 340.99 153.52 339.94C151.72 339.59 150.24 338.52 148.45 338.13C133.71 334.9 119.03 331.5 108.71 319.8C103.69 314.1 101.22 306.6 99.22 299.5C96.8 290.92 95.68 275.71 103.5 269.7C103.71 271.47 104.31 273.68 103.77 275.47C103.52 276.32 102.64 276.72 102.43 277.5C102.06 278.83 102.68 289.06 102.94 290.48C103.94 295.91 107.46 301.78 110.45 306.04C112.08 308.36 113.2 312.27 115.31 314.17C116.45 315.19 118.12 315.25 119.47 315.9C126.15 319.14 132.16 322.18 139.5 323.27C140.5 324.99 141.5 326.7 142.5 328.41C144.95 328.9 148.04 329.76 150.51 329.76C151.9 329.76 153.07 328.99 154.5 328.96C156.69 328.93 158.46 330.26 160.5 330.43C163.09 330.65 165.79 329.37 168.5 329.61C171.57 329.89 174.32 330.61 177.46 330.55C179.95 330.5 182.1 329.07 184.5 328.82C187.44 328.52 190.52 328.26 193.5 328.05C201.08 327.51 208.76 329.75 216.33 328.65C217.89 328.42 219.05 327.2 220.55 326.87C222.18 326.51 223.73 326.96 225.37 326.75C228.25 326.37 230.75 324.33 233.52 323.87C237.45 323.23 240.78 323.64 244.76 322.58ZM579.17 270.83C580.94 272.05 581.58 272.93 581.5 275C581.83 275.67 582.17 276.33 582.5 277C583.69 280.12 584.89 283.24 586.08 286.36C583.55 281.58 581.03 276.79 578.5 272C578.72 271.61 578.95 271.22 579.17 270.83ZM337.93 278C337.73 279.33 337.53 280.67 337.33 282C336.99 281.83 336.64 281.67 336.3 281.5C336.37 280.33 336.43 279.17 336.5 278C336.98 278 337.46 278 337.93 278ZM301.16 279.91C301.38 280.1 301.6 280.3 301.82 280.5C300.18 284.08 298.54 287.66 296.91 291.24C297.26 287.23 298.67 283.1 301.16 279.91ZM409.94 279.3C415.5 284.7 413.43 288.58 412.5 295C411.91 294.72 411.33 294.43 410.74 294.15C413.74 287.15 411.46 285.92 409.94 279.3ZM586.11 286.4C587.54 288.03 587.45 287.86 587.5 290C587.98 291.13 588.46 292.26 588.95 293.39C587.8 291.93 586.65 290.46 585.5 289C585.7 288.13 585.91 287.27 586.11 286.4ZM337.25 288C337.5 290.46 337.76 292.92 338.01 295.39C336.32 293.58 336.58 291.22 336.31 288.5C336.62 288.33 336.94 288.17 337.25 288ZM295.85 294.83C296.45 296.67 295.74 297.81 294.14 299C294.71 297.61 295.28 296.22 295.85 294.83ZM404.12 302.52C403.07 303.8 402.02 305.08 400.98 306.36C401.67 303.94 401.89 303.61 404.12 302.52ZM340.19 304.59C340.63 305.73 341.06 306.86 341.5 308C341.95 309.14 342.4 310.29 342.84 311.43C341.9 311.12 340.95 310.81 340 310.5C340.06 308.53 340.13 306.56 340.19 304.59ZM400.91 306.44C401.01 306.79 401.12 307.15 401.23 307.5C400.65 308.67 400.08 309.83 399.5 311C398.85 310.7 398.19 310.4 397.54 310.1C398.66 308.88 399.78 307.66 400.91 306.44ZM291.75 309C292.7 311.06 290.6 324.03 289.04 326C289.94 320.33 290.84 314.67 291.75 309ZM596.09 311.8C595.8 315.2 595.52 318.6 595.23 322C593.48 318.83 592.86 314.47 595 311.5C595.36 311.6 595.72 311.7 596.09 311.8ZM346.13 318.4C347.16 320.23 348.19 322.06 349.21 323.89C348.03 322.42 346.84 320.96 345.66 319.5C345.82 319.13 345.97 318.77 346.13 318.4ZM399.01 320.7C400.84 322.8 402.67 324.9 404.5 327C404.43 327.3 404.35 327.59 404.28 327.89C401.57 326.15 399.97 323.76 399.01 320.7ZM595.23 322C595.51 322.17 595.79 322.33 596.07 322.5C596.37 326 596.66 329.5 596.95 333C596.47 333.67 595.98 334.33 595.5 335C595.41 330.67 595.32 326.33 595.23 322ZM643.3 323C643.54 323.17 643.78 323.33 644.02 323.5C643.93 325 643.84 326.5 643.76 328C643.51 327.83 643.25 327.67 643 327.5C643.1 326 643.2 324.5 643.3 323ZM350.04 325.57C352.02 326.87 352.48 327.89 353.14 330.21C352.59 330.14 352.05 330.07 351.5 330C350.94 328.83 350.38 327.67 349.82 326.5C349.89 326.19 349.97 325.88 350.04 325.57ZM405.95 329.7C408.17 330.93 409.43 332.39 410.16 334.81C407.88 333.61 406.8 332.17 405.95 329.7ZM410.16 334.81C412.05 336.92 413.95 339.04 415.85 341.15C413.34 340.11 410.96 337.4 410.16 334.81ZM597.01 336C599.05 345.09 597.58 362.33 594.1 371C595.07 359.33 596.04 347.67 597.01 336ZM357.78 336.93C360.32 338.5 362.55 340.82 363.39 343.55C363.05 343.53 362.7 343.52 362.36 343.5C360.31 341.29 358.56 339.76 357.78 336.93ZM415.85 341.15C417.4 341.77 418.95 342.38 420.5 343C421.7 345.07 422.9 347.13 424.1 349.2C420.91 347.91 417.02 344.27 415.85 341.15ZM367.24 348.57C370.88 350.48 375.26 356.3 377.13 360.11C374.25 357.74 371.38 355.37 368.5 353C368.08 351.52 367.66 350.04 367.24 348.57ZM508.32 353.12C505.54 352.88 502.06 352.74 499.47 354.09C493.97 356.95 492.28 366.32 486.34 368.03C488.46 362 501.53 345.86 508.32 353.12ZM429.77 354.13C431.85 354.77 432.29 355.15 433.35 356.98C432.16 356.03 430.96 355.08 429.77 354.13ZM514.57 355.31C518.21 356.78 521.86 358.24 525.5 359.71C525.46 359.92 525.42 360.13 525.38 360.34C521.77 358.66 518.17 356.98 514.57 355.31ZM441.97 362.75C448.16 364.73 458.58 373.76 465 372.5C465.16 372.72 464.8 373.06 464.88 373.32C465.42 375.09 473.7 376.66 475 377.34C471.65 378.13 469.7 377.09 466.5 375.77C459.5 372.9 446.3 368.97 441.97 362.75ZM380.22 363.65C381.97 365.44 383.71 367.23 385.45 369.02C384.47 369.01 383.48 369.01 382.5 369C381.74 367.22 380.98 365.43 380.22 363.65ZM546.39 369.98C543.85 369.66 542.79 369.34 541 367.5C539.23 366.69 537.47 365.87 535.7 365.06C536.47 364.87 537.23 364.69 538 364.5C540.83 366 543.67 367.5 546.5 369C546.46 369.33 546.43 369.66 546.39 369.98ZM486.34 368.03C485.87 371.01 484.57 372.53 481.83 374.16C482.93 372.28 484.03 370.39 485.13 368.5C485.53 368.34 485.94 368.19 486.34 368.03ZM550 412.9C549.51 412.93 549.01 412.97 548.52 413C553.25 404.3 556.75 397.87 557.64 387.5C557.9 384.38 558.71 380.4 557.06 377.49C555.24 374.28 550.95 373.53 548.65 371.14C554.17 370.23 559.21 376.23 559.69 381.5C560.57 391.29 555.96 405.37 550 412.9ZM593.95 372C594 372.83 594.05 373.67 594.1 374.5C593.78 374.72 593.46 374.94 593.14 375.17C592.88 374.94 592.63 374.72 592.37 374.5C592.41 373.67 592.46 372.83 592.5 372C592.98 372 593.47 372 593.95 372ZM391.01 374.78C392.48 376.05 393.95 377.32 395.41 378.59C392.92 377.98 392.06 377.08 391.01 374.78ZM593.17 376C592.53 381.1 591.36 388.4 588.23 392.4C588.32 390.6 588.41 388.8 588.5 387C589.5 383.33 590.5 379.67 591.5 376C592.06 376 592.61 376 593.17 376ZM294.03 381C296.38 382.72 296.66 385.79 297.46 388.5C297.23 388.67 296.99 388.83 296.75 389C296.34 387.67 295.92 386.33 295.5 385C295.01 383.67 294.52 382.33 294.03 381ZM397.52 380.64C399.08 382.13 400.64 383.62 402.2 385.11C401.8 385.24 401.4 385.37 401 385.5C399.83 383.78 398.99 383.71 397 383.5C397.17 382.55 397.35 381.59 397.52 380.64ZM297.01 389.57C297.84 391.21 298.66 392.86 299.48 394.5C299.25 394.67 299.01 394.83 298.78 395C298.19 393.19 297.6 391.38 297.01 389.57ZM409.93 390.63C412.88 391.83 414.83 393.4 416.59 395.93C414.23 396.25 411.22 393.13 409.34 391.5C409.53 391.21 409.73 390.92 409.93 390.63ZM587.33 394.75C587.49 395 587.65 395.25 587.8 395.5C586.88 397.06 585.96 398.61 585.04 400.17C584.86 400.16 584.68 400.15 584.5 400.14C585.24 398.26 585.99 396.38 586.73 394.5C586.93 394.58 587.13 394.67 587.33 394.75ZM424.06 400.75C426.85 402.4 429.64 404.05 432.43 405.71C429.11 405.03 426.04 403.4 424.06 400.75ZM303.03 405C303.35 405.09 303.68 405.18 304 405.27C304.5 405.51 305 405.76 305.5 406C305.83 407.35 306.17 408.7 306.5 410.05C306.31 410.21 306.12 410.38 305.92 410.54C305.44 410.19 304.95 409.85 304.47 409.5C303.99 408 303.51 406.5 303.03 405ZM436.34 407.72C440.1 409.31 443.86 410.91 447.62 412.5C447.75 412.89 447.87 413.28 448 413.66C444.32 413.06 438.43 410.87 436.34 407.72ZM453.66 416C454.94 416.15 456.22 416.3 457.5 416.45C457.72 416.92 457.94 417.38 458.17 417.85C456.78 417.73 455.39 417.62 454 417.5C453.89 417 453.78 416.5 453.66 416ZM545.95 415.68C544.54 416.73 543.13 417.78 541.72 418.84C542.9 416.92 543.98 416.31 545.95 415.68ZM576.31 418.44C575.25 420.12 574.18 421.81 573.12 423.49C572.91 423.38 572.71 423.26 572.5 423.15C573.77 421.58 575.04 420.01 576.31 418.44ZM473.72 422.93C478.27 423.48 486.61 424.75 490 427.79C484.67 426.69 479.33 425.6 474 424.5C473.91 423.98 473.81 423.45 473.72 422.93ZM313.8 424.16C318.23 426.49 316.82 430.85 316.5 435C315.96 435.12 315.42 435.24 314.88 435.36C315.45 430.41 315.37 428.95 313.8 424.16ZM533.23 423.81C531.23 425.51 528.23 427.61 525.4 426.92C528.01 425.88 530.62 424.85 533.23 423.81ZM572.34 424.5C572.8 427.32 568.35 432.06 566.09 433.52C565.89 433.37 565.7 433.21 565.5 433.06C567.51 430.21 569.51 427.35 571.52 424.5C571.79 424.5 572.07 424.5 572.34 424.5ZM490 427.79C492.68 427.32 494.51 427.44 497 428.84C496.83 429.08 496.67 429.33 496.5 429.58C494.33 428.98 492.17 428.39 490 427.79ZM522.84 427.69C522.73 427.89 522.61 428.09 522.5 428.3C521.17 428.66 519.83 429.03 518.5 429.4C518.28 429.25 518.06 429.1 517.83 428.95C518.06 428.6 518.28 428.25 518.5 427.89C519.95 427.83 521.39 427.76 522.84 427.69ZM309.8 451C310.04 451.17 310.28 451.33 310.52 451.5C310.51 452.33 310.51 453.17 310.5 454C310.17 455 309.83 456 309.5 457C307.86 458.98 307.58 460.47 307.5 463C306.95 463.1 306.39 463.21 305.84 463.31C307.16 459.21 308.48 455.1 309.8 451ZM337.6 463.1C335.07 464.85 324.28 469.09 321.57 468.33C321.71 467.72 321.86 467.11 322 466.5C324.43 466.34 325.23 466.11 327 464.5C330.25 465.19 333.69 463.5 336.89 462.5C337.13 462.7 337.36 462.9 337.6 463.1ZM534.36 465.2C531.58 468.98 524.94 473.49 520.42 474.27C521.28 473.01 522.14 471.76 523 470.5C527.7 470.25 530.15 466.27 534.36 465.2ZM353.84 465.9C357.88 467.08 362.99 470.87 366.11 473.43C368.4 475.32 371.3 475.8 373.25 478.05C368.05 477.18 356.62 470.29 353.84 465.9ZM520.42 474.27C519.07 476.19 517.67 476.9 515.36 477.36C515.4 476.98 515.45 476.6 515.5 476.22C517.14 475.57 518.78 474.92 520.42 474.27ZM377.43 480.05C375.16 479.73 374.8 479.78 373.43 478.09C373.54 477.89 373.64 477.7 373.75 477.5C374.98 478.35 376.2 479.2 377.43 480.05ZM507.6 481.11C505.11 483.21 500.41 485.81 497 485.5C495.86 485.96 494.71 486.41 493.57 486.87C494.38 486.08 495.19 485.29 496 484.5C499.77 483.17 503.53 481.83 507.3 480.5C507.4 480.7 507.5 480.91 507.6 481.11ZM383.57 483.2C385.7 483.38 385.92 483.06 387 484.92C385.86 484.35 384.71 483.77 383.57 483.2ZM493.31 486.99C491.48 488.31 490.44 488.72 488.31 488.36C488.87 487.74 489.44 487.12 490 486.5C490.83 486.51 491.67 486.51 492.5 486.52C492.77 486.68 493.04 486.84 493.31 486.99ZM486.56 489.06C483.84 490.65 480.58 491.79 477.41 491.34C477.44 491.14 477.47 490.93 477.5 490.72C480.52 490.17 483.54 489.62 486.56 489.06ZM434 494.96C427.97 495.72 418.47 494.99 413 492.28C415.98 490.8 421.04 493.44 425 492.5C428 493.32 431 494.14 434 494.96ZM472 492.91C466.65 495.54 447.72 497.14 442 495.36C452 494.54 462 493.73 472 492.91Z" fill="#b89c8d" fill-rule="evenodd" stroke="#b89c8d" stroke-width="0.25" stroke-linejoin="round"/>
</svg>